<svg height="512" viewBox="0 0 128 128" width="512" xmlns="http://www.w3.org/2000/svg"><g><rect fill="#f2f4f9" height="45.269" rx="5.333" transform="matrix(.366 -.931 .931 .366 -15.336 117.556)" width="62.485" x="47.328" y="47.394"/><rect fill="#f2f4f9" height="62.485" rx="5.333" width="45.269" x="18.518" y="22.195"/><path d="m58.455 25.2h-17.3v56.481h17.3a2.335 2.335 0 0 0 2.332-2.333v-51.82a2.335 2.335 0 0 0 -2.332-2.328z" fill="#c3d4ed"/><path d="m43.151 45.155-2 2-2-2a5.745 5.745 0 0 0 -8.124 8.124l10.123 10.121 8.121-8.121 2-2a5.745 5.745 0 1 0 -8.124-8.124z" fill="#fd8595"/><path d="m41.15 51.4 4.122-4.122a2.745 2.745 0 1 1 3.881 3.882l-8 8z" fill="#e82582"/><path d="m105 50.067-16.057-6.307-20.908 52.473 16.314 6.409a2.328 2.328 0 0 0 3.024-1.318l18.946-48.233a2.335 2.335 0 0 0 -1.319-3.024z" fill="#c3d4ed"/><path d="m80.3 75.338-1.678-.659 2.029-5.16a1.75 1.75 0 1 0 -3.251-1.281l-2.033 5.162-1.553-.61a1.75 1.75 0 0 0 -1.279 3.258l6.488 2.552a1.733 1.733 0 0 0 .639.122 1.75 1.75 0 0 0 .64-3.38z" fill="#232533"/><path d="m76.768 69.153 2.593-1.13 1.128 2.588a5.745 5.745 0 1 0 10.532-4.591l-5.721-13.12-10.531 4.591-2.593 1.13a5.745 5.745 0 0 0 4.592 10.532z" fill="#393c47"/><path d="m85.758 71.062a2.747 2.747 0 0 1 -2.519-1.649l-2.327-5.339 2.838-7.225 4.521 10.37a2.747 2.747 0 0 1 -2.513 3.843z" fill="#232533"/></g></svg>