<svg height="512" viewBox="0 0 128 128" width="512" xmlns="http://www.w3.org/2000/svg"><g><path d="m75.055 7.43-11.055 15.97-11.055-15.97a43.077 43.077 0 1 0 22.11 0z" fill="#2d3c6b"/><path d="m97.96 49.07c0 .59-.02 1.17-.04 1.75a33.885 33.885 0 0 1 -8.71 20.98c-.78.86-1.6 1.69-2.47 2.48a33.944 33.944 0 0 1 -20.99 8.71c-.58.02-1.16.04-1.75.04s-1.17-.02-1.75-.04a33.944 33.944 0 0 1 -20.99-8.71c-.87-.79-1.69-1.62-2.47-2.48a33.885 33.885 0 0 1 -8.71-20.98c-.02-.58-.04-1.16-.04-1.75s.02-1.17.05-1.75a33.749 33.749 0 0 1 8.71-20.98 30.418 30.418 0 0 1 2.47-2.48 33.929 33.929 0 0 1 17.29-8.31l3.69 5.32 1.75 2.53 1.75-2.53 3.69-5.32a34.028 34.028 0 0 1 28.47 31.77c.03.58.05 1.16.05 1.75z" fill="#fcf9f0"/><path d="m34.3 116.383h59.4a9.31 9.31 0 0 1 9.31 9.31v.555a0 0 0 0 1 0 0h-78.017a0 0 0 0 1 0 0v-.555a9.31 9.31 0 0 1 9.307-9.31z" fill="#2d3c6b"/><g fill="#efe1cb"><path d="m65.75 20.87v19.77a1.75 1.75 0 0 1 -3.5 0v-19.77l1.75 2.53z"/><path d="m65.75 57.5v25.49c-.58.02-1.16.04-1.75.04s-1.17-.02-1.75-.04v-25.49a1.75 1.75 0 0 1 3.5 0z"/><path d="m89.2 26.34-18 18a1.747 1.747 0 1 1 -2.47-2.47l18.01-18.01a33.85 33.85 0 0 1 2.46 2.48z"/><path d="m59.27 56.27-18.01 18.01c-.87-.79-1.69-1.62-2.47-2.48l18.01-18.01a1.75 1.75 0 0 1 2.47 2.48z"/><path d="m97.96 49.07c0 .59-.02 1.17-.04 1.75h-25.49a1.75 1.75 0 0 1 0-3.5h25.48c.03.58.05 1.16.05 1.75z"/><path d="m57.32 49.07a1.752 1.752 0 0 1 -1.75 1.75h-25.49c-.02-.58-.04-1.16-.04-1.75s.02-1.17.05-1.75h25.48a1.752 1.752 0 0 1 1.75 1.75z"/><path d="m89.21 71.8c-.78.86-1.6 1.69-2.47 2.48l-18.01-18.01a1.75 1.75 0 0 1 2.47-2.48z"/><path d="m59.27 44.34a1.727 1.727 0 0 1 -2.47 0l-18-18a30.418 30.418 0 0 1 2.47-2.48l18 18.01a1.732 1.732 0 0 1 0 2.47z"/></g><path d="m64 23.403-14.989-21.656h29.978z" fill="#73c3f9"/><path d="m64 92.147a42.876 42.876 0 0 1 -22.455-6.312l-3.778 30.548h52.466l-3.778-30.548a42.876 42.876 0 0 1 -22.455 6.312z" fill="#ffc839"/><path d="m49.354 103.071h29.293v13.311h-29.293z" fill="#ff9100"/><circle cx="64" cy="49.069" fill="#73c3f9" r="8.433"/></g></svg>